<svg width="130" height="130" viewBox="0 0 130 130" fill="none" xmlns="http://www.w3.org/2000/svg">
<rect width="130" height="130" fill="url(#paint0_linear_2_2)"/>
<g filter="url(#filter0_di_2_2)">
<path d="M100.2135,43.6043c-1.0936-8.0584-8.1784-14.409-16.5769-15.6396C82.2196,27.7568,76.851,27,64.4148,27 H64.322c-12.4396,0-15.1085,0.7568-16.5254,0.9647c-8.1647,1.1965-15.6209,6.9028-17.4299,15.0567 c-0.8701,4.0155-0.963,8.4674-0.8013,12.5512c0.2303,5.8563,0.2751,11.7024,0.8116,17.5349 c0.3709,3.8742,1.018,7.7177,1.9363,11.5013c1.7196,6.988,8.6805,12.8033,15.5005,15.176 c7.3017,2.4742,15.1542,2.8852,22.6781,1.1862c0.8277-0.191,1.6462-0.412,2.4556-0.665c1.8262-0.5758,3.9689-1.22,5.544-2.3518 c0.0216-0.0158,0.0393-0.0364,0.0518-0.06c0.0125-0.0236,0.0195-0.0497,0.0204-0.0763V92.166 c-0.0003-0.0249-0.0063-0.0494-0.0175-0.0717c-0.0112-0.0223-0.0273-0.0419-0.047-0.0573 c-0.0198-0.0153-0.0428-0.0261-0.0674-0.0315c-0.0245-0.0054-0.0499-0.0053-0.0744,0.0003 c-4.8205,1.1413-9.7603,1.7134-14.7164,1.7044c-8.5292,0-10.8232-4.0122-11.4801-5.6825 c-0.528-1.4436-0.8633-2.9494-0.9973-4.4792c-0.0013-0.0258,0.0034-0.0513,0.0139-0.0748 c0.0105-0.0236,0.0264-0.0443,0.0465-0.0606c0.0201-0.0162,0.0438-0.0276,0.0691-0.0331c0.0254-0.0055,0.0517-0.005,0.0768,0.0015 c4.7402,1.1335,9.5994,1.7057,14.4756,1.7043c1.1728,0,2.3421,0,3.5149-0.0307c4.9043-0.1363,10.0735-0.3852,14.8987-1.3192 c0.1203-0.0238,0.2407-0.0443,0.3439-0.075c7.6109-1.4487,14.8539-5.9962,15.5899-17.511 c0.0275-0.4534,0.0963-4.7485,0.0963-5.2189C100.2926,59.3325,100.8085,49.5901,100.2135,43.6043z M49.2219,63.8715 c0,0.2417-0.1959,0.4376-0.4376,0.4376h-5.0515c-0.2417,0-0.4376-0.1959-0.4376-0.4376V38.322 c0-0.2417,0.1959-0.4376,0.4376-0.4376h5.0515c0.2416,0,0.4376,0.1959,0.4376,0.4376V63.8715z M61.8141,63.8715 c0,0.2417-0.1959,0.4376-0.4376,0.4376h-5.0515c-0.2417,0-0.4376-0.1959-0.4376-0.4376V38.322 c0-0.2417,0.1959-0.4376,0.4376-0.4376h5.0515c0.2416,0,0.4376,0.1959,0.4376,0.4376V63.8715z M77.3492,73.9484 c-3.1218,0-7.1033-0.3872-8.4606-1.0165c-0.2283-0.0823-0.3875-0.2904-0.4071-0.5323V38.3686 c-0.0227-0.2437,0.1566-0.4597,0.4003-0.4823c0.0174-0.0016,0.0348-0.0022,0.0522-0.0018h5.0219 c0.2446-0.0062,0.4479,0.1871,0.4541,0.4316c0.0004,0.0175-0.0002,0.035-0.0018,0.0524v8.7618 c0,0.2421,0.0906,0.3872,0.362,0.3872c0.6334,0,2.8504-0.3872,4.5242-0.3872c7.3292,0,9.7725,3.9695,9.7725,12.5861 C89.067,69.2045,86.7142,73.9484,77.3492,73.9484z M82.8685,60.1521c0,7.116-0.7691,9.1976-5.5648,9.1976 c-0.8654,0.0023-1.7288-0.0789-2.5787-0.2421c-0.2053-0.0681-0.3366-0.2687-0.3168-0.4841V52.6973 c0-0.2421,0.0454-0.4357,0.3168-0.5326c0.9085-0.2772,1.8553-0.4079,2.8049-0.3872 C81.6472,51.7775,82.8685,53.2781,82.8685,60.1521z" fill="#FBFBFB" fill-opacity="0.97"/>
</g>
<defs>
<filter id="filter0_di_2_2" x="21" y="27" width="79" height="83" filterUnits="userSpaceOnUse" color-interpolation-filters="sRGB">
<feFlood flood-opacity="0" result="BackgroundImageFix"/>
<feColorMatrix in="SourceAlpha" type="matrix" values="0 0 0 0 0 0 0 0 0 0 0 0 0 0 0 0 0 0 127 0" result="hardAlpha"/>
<feOffset dy="4"/>
<feGaussianBlur stdDeviation="2"/>
<feComposite in2="hardAlpha" operator="out"/>
<feColorMatrix type="matrix" values="0 0 0 0 0.261224 0 0 0 0 0.16597 0 0 0 0 0.662652 0 0 0 0.4 0"/>
<feBlend mode="normal" in2="BackgroundImageFix" result="effect1_dropShadow_2_2"/>
<feBlend mode="normal" in="SourceGraphic" in2="effect1_dropShadow_2_2" result="shape"/>
<feColorMatrix in="SourceAlpha" type="matrix" values="0 0 0 0 0 0 0 0 0 0 0 0 0 0 0 0 0 0 127 0" result="hardAlpha"/>
<feOffset dy="4"/>
<feGaussianBlur stdDeviation="2"/>
<feComposite in2="hardAlpha" operator="arithmetic" k2="-1" k3="1"/>
<feColorMatrix type="matrix" values="0 0 0 0 0.337255 0 0 0 0 0.227451 0 0 0 0 0.8 0 0 0 0.05 0"/>
<feBlend mode="normal" in2="shape" result="effect2_innerShadow_2_2"/>
</filter>
<linearGradient id="paint0_linear_2_2" x1="61" y1="130" x2="61" y2="-91.5" gradientUnits="userSpaceOnUse">
<stop offset="0.0755157" stop-color="#563ACC"/>
<stop offset="0.520094" stop-color="#6364FF"/>
</linearGradient>
</defs>
</svg>
